# xmcd
#
# Track frame offsets:
#       150
#       15209
#       28424
#       42756
#       57891
#       72644
#       86523
#       101120
#       115479
#       128524
#       140844
#       153050
#       168158
#       180141
#       194804
#       208086
#       222402
#       237012
#       252353
#
# Disc length: 3560 seconds
#
# Revision: 1
# Processed by: cddbd v1.5.1PL0 Copyright (c) Steve Scherf et al.
# Submitted via: WhereIsIt 3.67
#
DISCID=0c0de613
DTITLE=Ma Rainey - Compilation
DYEAR=1900
DGENRE=Blues
TTITLE0=Booze And Blues
TTITLE1=Bo-Weavil Blues
TTITLE2=Chain Gang Blues
TTITLE3=Countin' The Blues
TTITLE4=Daddy Goodbye Blues
TTITLE5=Down In The Basement
TTITLE6=Jealous Hearted Blues
TTITLE7=Ma Rainey's Black Bottom
TTITLE8=New Bo-Weavil Blues
TTITLE9=Prove It On Me Blues
TTITLE10=Save 'em Dry
TTITLE11=See See Rider Blues
TTITLE12=Slave To The Blues
TTITLE13=Sleep Talking Blues
TTITLE14=Stack O'Lee Blues
TTITLE15=Sweet Rough Man
TTITLE16=Toad Frog Blues
TTITLE17=Jelly Bean Blues
TTITLE18=Black Eye Blues
EXTD=
EXTT0=
EXTT1=
EXTT2=
EXTT3=
EXTT4=
EXTT5=
EXTT6=
EXTT7=
EXTT8=
EXTT9=
EXTT10=
EXTT11=
EXTT12=
EXTT13=
EXTT14=
EXTT15=
EXTT16=
EXTT17=
EXTT18=
PLAYORDER=
